<svg width="600" height="400" viewBox="0 0 600 400" xmlns="http://www.w3.org/2000/svg">
  <!-- Clean Background -->
  <rect width="600" height="400" fill="white" />
  
  <!-- Detailed Capybara Illustration -->
  <g transform="translate(45, 40) scale(1.1)">
    <!-- Body -->
    <ellipse cx="60" cy="70" rx="45" ry="30" fill="#8B5A2B" />
    <ellipse cx="40" cy="55" rx="30" ry="25" fill="#8B5A2B" />
    
    <!-- Face/Snout -->
    <path d="M15 50 Q10 55 15 65 L40 70 L40 45 Z" fill="#8B5A2B" />
    <path d="M15 55 Q12 55 15 60" fill="#222" stroke-width="2" /> <!-- Eye -->
    <rect x="12" y="60" width="4" height="2" rx="1" fill="#222" /> <!-- Nose -->
    
    <!-- Ears -->
    <path d="M45 35 Q50 30 55 35" fill="#5D3A1A" />
    
    <!-- Legs -->
    <rect x="30" y="85" width="8" height="15" rx="2" fill="#5D3A1A" />
    <rect x="80" y="85" width="8" height="15" rx="2" fill="#5D3A1A" />
    <rect x="50" y="90" width="8" height="15" rx="2" fill="#5D3A1A" />
    <rect x="95" y="85" width="8" height="15" rx="2" fill="#5D3A1A" />
    
    <!-- Details/Shadows -->
    <ellipse cx="60" cy="70" rx="40" ry="25" fill="#A07850" opacity="0.3" />
  </g>

  <!-- Name and Location -->
  <text x="40" y="160" font-family="Arial, sans-serif" font-size="22" font-weight="bold" fill="#1A1A1A">Gabriel Gama</text>
  <text x="40" y="185" font-family="Arial, sans-serif" font-size="16" fill="#888888">Brazil</text>

  <!-- Bio Paragraph 1 -->
  <text x="40" y="230" font-family="Arial, sans-serif" font-size="16" fill="#333333">
    <tspan x="40" dy="0">Developer and creative experiment enthusiast. Always seeking</tspan>
    <tspan x="40" dy="24">ways to challenge the limitations of development tools, like</tspan>
    <tspan x="40" dy="24">turning a README into a LEGO set.</tspan>
  </text>

  <!-- Bio Paragraph 2 -->
  <text x="40" y="320" font-family="Arial, sans-serif" font-size="16" fill="#333333">
    <tspan x="40" dy="0">Currently exploring the potential of modular SVG components</tspan>
    <tspan x="40" dy="24">and interactive architectures directly on GitHub.</tspan>
  </text>
</svg>
